# xmcd CD database file
# Copyright (C) 1996 Ti Kan
#
# Track frame offsets:
# 	150
# 	17865
# 	33477
# 	51267
# 	66442
# 	85487
# 	102747
# 	120775
# 	150367
# 	165992
# 	184367
# 	203175
# 	217459
#
# Disc length: 3158 seconds
#
# Revision: 1
# Processed by: cddbd v1.4b41PL1 Copyright (c) Steve Scherf et al.
# Submitted via: DiscPlay 3.4.1
#
DISCID=bb0c540d
DTITLE=Burton Gaar - One Hundred Punds Of Trouble
DYEAR=1900
DGENRE=
TTITLE0=One Hundred Punds Of Trouble
TTITLE1=Real Good Woman
TTITLE2=No
TTITLE3=I Won't Cry
TTITLE4=It's Still Raining
TTITLE5=Bim Bam Thank You Mam
TTITLE6=Step Out Lady
TTITLE7=Tear It Up
TTITLE8=Short Red Dress
TTITLE9=Face Down On The Bottom
TTITLE10=Because Of You
TTITLE11=I Be Gone
TTITLE12=Where The Girl Is
EXTD=
EXTT0=
EXTT1=
EXTT2=
EXTT3=
EXTT4=
EXTT5=
EXTT6=
EXTT7=
EXTT8=
EXTT9=
EXTT10=
EXTT11=
EXTT12=
PLAYORDER=
